<svg id="Слой_1" data-name="Слой 1" xmlns="http://www.w3.org/2000/svg" xmlns:xlink="http://www.w3.org/1999/xlink" viewBox="0 0 1965.62 599.69"><defs><style>.cls-1{fill:url(#Безымянный_градиент_111);}.cls-2{fill:url(#Безымянный_градиент_111-2);}.cls-3{fill:url(#Безымянный_градиент_169);}.cls-4{fill:url(#Безымянный_градиент_169-2);}.cls-5{fill:url(#Безымянный_градиент_169-3);}.cls-6{fill:#fff;}.cls-7{fill:#5fff81;}</style><linearGradient id="Безымянный_градиент_111" x1="457.63" y1="291.36" x2="504.18" y2="291.36" gradientUnits="userSpaceOnUse"><stop offset="0" stop-color="#ffd53f"/><stop offset="1" stop-color="#ff9f00"/></linearGradient><linearGradient id="Безымянный_градиент_111-2" x1="5.66" y1="392.58" x2="1182.42" y2="392.58" xlink:href="#Безымянный_градиент_111"/><linearGradient id="Безымянный_градиент_169" x1="1144.27" y1="191.58" x2="1238.02" y2="191.58" gradientUnits="userSpaceOnUse"><stop offset="0" stop-color="#00d53f"/><stop offset="1" stop-color="#009f00"/></linearGradient><linearGradient id="Безымянный_градиент_169-2" x1="897.79" y1="188.52" x2="1177.99" y2="188.52" xlink:href="#Безымянный_градиент_169"/><linearGradient id="Безымянный_градиент_169-3" x1="1079.35" y1="341.34" x2="1200.36" y2="341.34" xlink:href="#Безымянный_градиент_169"/></defs><polygon class="cls-1" points="472.52 258.59 504.18 258.59 491.52 324.13 457.63 324.13 472.52 258.59"/><path class="cls-2" d="M1044.24,340.16l-14.9,65.54h33.89l12.66-65.54ZM1172.63,262c-36.84-94.69-167.3-120.66-264.63-140C698.2,80.24,402.38,102.8,198.61,274.24h37.14l25.32,31.65,40.22-31.65h65.92l25.32,31.65-51,229H276l44.69-195.15H286.77L242.08,534.93H176.16l44.69-195.15H189.2L144.51,534.93H79l39.65-179.31C45.6,445.36-23.08,578.34,18,630c32,40.19,102.73-3.61,255-12,258.17-14.23,326.37,96.71,545,53,46.43-9.28,126.88-26.31,205-88a483.36,483.36,0,0,0,52.06-48.07h-41.62L1048.33,469h-33.89l-14.89,65.92H934l50.65-229,42.46-31.65h97.57L1150,305.89l-42.58,191.16C1163.09,425.18,1201.34,335.79,1172.63,262ZM467.38,534.93,482.28,469H448.39l-14.9,65.92H368l50.65-229,42.45-31.65h97.57L584,305.89l-51,229Zm189.56,0,43.94-194.77H669.23L624.91,534.93H559.37l50.64-229,40.22-31.65H750l25.32,31.65-52.88,229ZM943.32,371.44H878.15l8.19-31.28H852.45L824.89,469.38h32l6.33-31.65H848l7.08-32.4h82.3L916.5,503.27l-40.22,31.66H776.1l-25.32-31.66L795.1,305.52l40.22-31.28h97.57l25.7,31.28Zm119.91,34.26,12.66-65.54h-31.65l-14.9,65.54Z" transform="translate(-5.66 -81.57)"/><path class="cls-3" d="M1144.27,230.35c11-51.68,41.53-80.54,65-77.29,14.22,2,29.26,16.16,28.69,29.49C1237.14,202.7,1200.54,221.2,1144.27,230.35Z" transform="translate(-5.66 -81.57)"/><path class="cls-4" d="M1167.13,295.47c8.91-23.16,15.39-53.06,6.88-83.73C1141.45,94.47,915.86,60.66,898.89,93.43c-7.85,15.17,27.47,47.44,68.35,84.78C1039.8,244.5,1115.73,278,1167.13,295.47Z" transform="translate(-5.66 -81.57)"/><path class="cls-5" d="M1172.79,208.3c-10.62,5-74.75,36.48-90.1,103.47-18.44,80.54,44,167.18,75.77,162.44,30.8-4.59,46-96.86,40.92-163.07A308.09,308.09,0,0,0,1172.79,208.3Z" transform="translate(-5.66 -81.57)"/><path class="cls-6" d="M1322.56,340.4h-32l-10.43,39.85H1346l25.32,32-19,91.24-40.22,31.65h-99.81L1187,503.52l12.66-57.35h65.92l-4.47,23.08h31.65l10.8-40.22h-67.77l-23.47-31.65,19.37-91.24,40.22-31.66h97.2l27.56,31.66-14.9,57.35h-65.54Z" transform="translate(-5.66 -81.57)"/><path class="cls-6" d="M1507.64,372.06l23.46-97.58h65.55l-59.21,260.69h-65.92l21.23-97.57h-31.66L1438,535.17h-65.92l59.59-260.69h65.54L1476,372.06Z" transform="translate(-5.66 -81.57)"/><path class="cls-6" d="M1572.06,503.52l44.69-197.38L1657,274.48h97.58l25.32,31.66-44.32,197.38-40.22,31.65h-97.94Zm106.14-33.89L1708,340h-33.88l-29.8,129.6Z" transform="translate(-5.66 -81.57)"/><path class="cls-6" d="M1835.73,469.25l-14.53,65.92h-65.91l50.64-228.66,40.23-32H1946l25.33,32L1941.86,437.6l-40.22,31.65Zm46.55-63.3,14.89-65.55h-31.65L1850.62,406Z" transform="translate(-5.66 -81.57)"/><path class="cls-7" d="M2518,407" transform="translate(-5.66 -81.57)"/></svg>